<?xml version="1.0" encoding="UTF-8"?>
<svg version="1.1" xmlns="http://www.w3.org/2000/svg" width="144" height="144">
<path d="M0 0 C47.52 0 95.04 0 144 0 C144 47.52 144 95.04 144 144 C96.48 144 48.96 144 0 144 C0 96.48 0 48.96 0 0 Z " fill="#27262C" transform="translate(0,0)"/>
<path d="M0 0 C9.24 0 18.48 0 28 0 C24.41087588 3.58912412 23.22706417 3.44420474 18.3125 3.6875 C17.13300781 3.75324219 15.95351562 3.81898437 14.73828125 3.88671875 C13.38283203 3.94279297 13.38283203 3.94279297 12 4 C12 4.66 12 5.32 12 6 C12.928125 5.95875 13.85625 5.9175 14.8125 5.875 C18 6 18 6 21 8 C22.88154883 8.44111565 24.78062638 8.8109267 26.6875 9.125 C28.17830078 9.37636719 28.17830078 9.37636719 29.69921875 9.6328125 C30.45847656 9.75398437 31.21773437 9.87515625 32 10 C32 10.66 32 11.32 32 12 C31.34 12 30.68 12 30 12 C30 12.66 30 13.32 30 14 C31.32 13.67 32.64 13.34 34 13 C32.58551243 16.28363186 30.89728224 18.18712853 28.25 20.5625 C23.5769896 25.07348997 20.81506197 30.19926624 18 36 C16.7922442 32.37673261 17.45688872 31.35853631 19 28 C12.84219298 32.9848914 11.29396326 43.02558065 10.24609375 50.40917969 C9.34699719 59.87466845 9.78964858 69.50613911 10 79 C9.01 79.495 9.01 79.495 8 80 C10.25465632 90.90824201 15.29129537 102.94167958 24.4453125 109.84375 C30.48260887 113.57525679 36.53995591 117.05084944 43 120 C43.68835937 120.32097656 44.37671875 120.64195313 45.0859375 120.97265625 C49.95991207 123.04361383 54.72186695 123.80160995 60 123 C60.99 122.34 61.98 121.68 63 121 C62.12862329 115.79467071 61.17593168 110.63188498 59.90625 105.5078125 C59.71643555 104.72325684 59.52662109 103.93870117 59.33105469 103.13037109 C58.95012889 101.56985574 58.55540117 100.01263075 58.14550781 98.45947266 C56.89050517 93.25086881 57.11092073 90.02867581 59 85 C57.90300781 84.32453125 56.80601563 83.6490625 55.67578125 82.953125 C54.22124887 82.05225333 52.76682764 81.15120216 51.3125 80.25 C50.2306543 79.58484375 50.2306543 79.58484375 49.12695312 78.90625 C47.068331 77.62783626 45.03127321 76.32133881 43 75 C42.00355469 74.35546875 41.00710937 73.7109375 39.98046875 73.046875 C38 71 38 71 37.43359375 68.17578125 C38.13837845 64.22412633 39.82040702 61.43051933 42.0625 58.1875 C42.68040405 57.27218506 42.68040405 57.27218506 43.31079102 56.33837891 C44.14298937 55.11597163 44.9823255 53.89838987 45.82910156 52.68603516 C46.84781722 51.21913558 47.82966636 49.72676743 48.8046875 48.23046875 C52.90135711 42.32067981 57.12656394 39.97766873 64 38 C64 36.68 64 35.36 64 34 C63.071875 34.0825 62.14375 34.165 61.1875 34.25 C58 34 58 34 56.33203125 32.32421875 C53.9236536 28.12191758 54.27220411 23.68561924 55 19 C57.0625 15.8125 57.0625 15.8125 60 14 C64.53017418 13.25869877 66.45318669 13.68185408 70.4375 16 C71.7059375 16.99 71.7059375 16.99 73 18 C72.67 21.3 72.34 24.6 72 28 C73.051875 27.05125 74.10375 26.1025 75.1875 25.125 C81.86840652 19.09908432 88.99241859 19.4125498 97.53515625 19.6328125 C105.68409646 20.11226193 110.81204141 23.45355957 116.375 29.25 C117.62353816 30.80182678 118.83522942 32.38435048 120 34 C120.45632812 34.63164063 120.91265625 35.26328125 121.3828125 35.9140625 C125.66943409 43.43813257 125.06342233 53.65123353 124 62 C122.80060389 66.32148826 121.14122069 70.07342347 119 74 C118.54753906 74.96421875 118.09507813 75.9284375 117.62890625 76.921875 C115.80881356 80.36128277 113.64126258 83.38499818 111.25 86.4375 C110.8068042 87.0051709 110.3636084 87.5728418 109.90698242 88.15771484 C104.63896952 94.82118363 100.19695279 100.15615924 92 103 C91.67 102.34 91.34 101.68 91 101 C90.34 101 89.68 101 89 101 C88.68680856 102.39567835 88.37448212 103.79155082 88.0625 105.1875 C87.87558594 106.01121094 87.68867187 106.83492188 87.49609375 107.68359375 C86.95647486 110.06111635 86.95647486 110.06111635 86.625 112.75 C85.77762316 115.80055661 83.99483395 117.549204 82 120 C80.93796748 122.01706922 79.96841472 124.05680187 79.02734375 126.1328125 C78 128 78 128 76.51171875 129.4296875 C74.5778453 131.43851729 73.85768529 133.4001397 72.875 136 C72.54242188 136.86625 72.20984375 137.7325 71.8671875 138.625 C71.21665341 140.4066429 70.59978713 142.20063861 70 144 C46.9 144 23.8 144 0 144 C0 96.48 0 48.96 0 0 Z " fill="#111113" transform="translate(0,0)"/>
<path d="M0 0 C0.99 0.99 0.99 0.99 2 2 C0.60974609 2.41572266 0.60974609 2.41572266 -0.80859375 2.83984375 C-2.60490234 3.38318359 -2.60490234 3.38318359 -4.4375 3.9375 C-6.22994141 4.47697266 -6.22994141 4.47697266 -8.05859375 5.02734375 C-10.85867545 5.70889142 -10.85867545 5.70889142 -12 7 C-14.4375 7.1875 -14.4375 7.1875 -17 7 C-17.66 6.34 -18.32 5.68 -19 5 C-22.71480543 4.58724384 -25.11461964 4.52325673 -28.4375 6.3125 C-30.92212779 10.5860598 -30.63408024 15.17066794 -30 20 C-29.34 20.99 -28.68 21.98 -28 23 C-24.91634129 23.2502157 -24.91634129 23.2502157 -22 23 C-21.505 25.475 -21.505 25.475 -21 28 C-22.66015625 28.68359375 -24.3203125 29.3671875 -25.98046875 30.05078125 C-26.64691406 30.36402344 -27.31335937 30.67726562 -28 31 C-28.77601562 31.35578125 -29.55203125 31.7115625 -30.3515625 32.078125 C-34.219127 34.88467623 -36.52270437 38.51442015 -39.1875 42.4375 C-39.98704102 43.5831543 -39.98704102 43.5831543 -40.80273438 44.75195312 C-46.1903335 52.15491078 -46.1903335 52.15491078 -47 61 C-45.22779326 63.03248768 -45.22779326 63.03248768 -42.6875 64.5 C-41.78644531 65.07878906 -40.88539062 65.65757813 -39.95703125 66.25390625 C-35.36942393 68.96283686 -30.72869679 71.54575243 -26 74 C-26.20238281 74.50144531 -26.40476563 75.00289063 -26.61328125 75.51953125 C-28.86604351 82.90708124 -27.11866481 88.79696886 -24.96801758 95.95825195 C-23.35606005 101.34017306 -22.47592598 106.39527165 -22 112 C-26.36052379 114.39780465 -30.11898641 114.76498549 -35 114 C-44.48907606 111.0536681 -52.89398631 106.76827254 -61 101 C-62.051875 100.29875 -63.10375 99.5975 -64.1875 98.875 C-73.72535412 90.47063 -79.07650991 76.15463927 -79.921875 63.80078125 C-79.96054688 62.90939453 -79.96054688 62.90939453 -80 62 C-78.25372522 64.61941217 -77.61277612 66.03824877 -77 69 C-77.01571045 68.29093506 -77.0314209 67.58187012 -77.04760742 66.85131836 C-77.7554238 30.01201436 -77.7554238 30.01201436 -69 18 C-68.01 17.67 -67.02 17.34 -66 17 C-66.66 19.64 -67.32 22.28 -68 25 C-67.50693359 23.96552734 -67.50693359 23.96552734 -67.00390625 22.91015625 C-62.60974369 14.22900582 -56.62965878 5.28817617 -47 2 C-46.34 2.33 -45.68 2.66 -45 3 C-45.66 3.66 -46.32 4.32 -47 5 C-46.0409375 5.4021875 -46.0409375 5.4021875 -45.0625 5.8125 C-43 7 -43 7 -42 10 C-36.39567456 7.98928782 -32.12144743 6.39621059 -28 2 C-19.76222319 -3.79621886 -9.25655833 -3.29574165 0 0 Z " fill="#1D1C21" transform="translate(86,10)"/>
<path d="M0 0 C5.09975281 3.12140043 8.89800791 7.23957549 12.375 12.0625 C13.05949219 13.00996094 13.05949219 13.00996094 13.7578125 13.9765625 C18.04443409 21.50063257 17.43842233 31.71373353 16.375 40.0625 C15.17560389 44.38398826 13.51622069 48.13592347 11.375 52.0625 C10.92253906 53.02671875 10.47007813 53.9909375 10.00390625 54.984375 C8.18381356 58.42378277 6.01626258 61.44749818 3.625 64.5 C3.1818042 65.0676709 2.7386084 65.6353418 2.28198242 66.22021484 C-2.98603048 72.88368363 -7.42804721 78.21865924 -15.625 81.0625 C-16.12 80.0725 -16.12 80.0725 -16.625 79.0625 C-17.285 78.7325 -17.945 78.4025 -18.625 78.0625 C-18.46 77.155 -18.295 76.2475 -18.125 75.3125 C-17.22549906 69.00314341 -17.07686179 62.35132926 -18.125 56.0625 C-19.2457687 49.33788783 -19.11845654 42.55750931 -17.5 35.9375 C-16.42576821 31.31979528 -16.96051711 27.75220152 -18.1171875 23.19140625 C-18.625 21.0625 -18.625 21.0625 -18.625 18.0625 C-19.43324219 17.97613281 -20.24148437 17.88976562 -21.07421875 17.80078125 C-29.83866072 16.64839986 -29.83866072 16.64839986 -33.8125 13.6875 C-35.48333334 11.2676724 -36.03680868 9.85492345 -36.625 7.0625 C-35.40364002 5.92902945 -34.17250819 4.80608413 -32.9375 3.6875 C-32.25300781 3.06101562 -31.56851563 2.43453125 -30.86328125 1.7890625 C-23.06544179 -4.22602483 -8.7641215 -3.96504717 0 0 Z " fill="#232227" transform="translate(107.625,21.9375)"/>
<path d="M0 0 C0.33 0 0.66 0 1 0 C1 22.11 1 44.22 1 67 C-17.81 67 -36.62 67 -56 67 C-54.875 58 -54.875 58 -53.37109375 55.15625 C-53.05849609 54.55039063 -52.74589844 53.94453125 -52.42382812 53.3203125 C-52.09833984 52.71960938 -51.77285156 52.11890625 -51.4375 51.5 C-51.10814453 50.86835937 -50.77878906 50.23671875 -50.43945312 49.5859375 C-49.63734445 48.05146874 -48.82024884 46.52484902 -48 45 C-46.69334867 47.61330266 -47.24247803 48.70174163 -47.9375 51.5 C-48.74468356 54.71658903 -48.74468356 54.71658903 -49 58 C-48.67386719 56.9378125 -48.34773438 55.875625 -48.01171875 54.78125 C-47.11688109 51.87517453 -46.20440182 48.97532227 -45.28125 46.078125 C-44.56312628 43.82321653 -43.88961977 41.58487435 -43.28125 39.296875 C-42.476563 36.52282246 -41.62840099 34.47237432 -39.28515625 32.7109375 C-36.14326942 31.03446046 -33.14787338 30.03627083 -29.6875 29.1875 C-24.20813873 27.42295993 -19.74382424 24.20830066 -15 21 C-16.32 21.33 -17.64 21.66 -19 22 C-18.72974791 17.40571454 -16.80781415 15.28500528 -13.609375 12.26171875 C-12 11 -12 11 -9.5 10.125 C-5.42936467 8.2932141 -3.49223035 4.58849623 -1 1 C-0.67 0.67 -0.34 0.34 0 0 Z " fill="#151417" transform="translate(143,77)"/>
<path d="M0 0 C2.5 2.125 2.5 2.125 5 5 C5.92619141 5.94166016 5.92619141 5.94166016 6.87109375 6.90234375 C16.54504897 17.01519297 20.42240719 27.25124031 20.2265625 41.0234375 C19.80435042 48.4339874 17.83336384 55.17528883 15 62 C14.34 62 13.68 62 13 62 C12.89945313 62.55300781 12.79890625 63.10601562 12.6953125 63.67578125 C10.46851017 71.1193059 4.50861924 77.86883974 -0.32421875 83.83203125 C-4.49930348 89.23336464 -6.99029941 94.16905918 -9 100.625 C-9.51299041 102.21875979 -10.02601136 103.81250976 -10.5390625 105.40625 C-10.7855957 106.18355469 -11.03212891 106.96085937 -11.28613281 107.76171875 C-12.28495774 110.89346531 -13.32883183 114.00875438 -14.375 117.125 C-14.85066406 118.55199219 -14.85066406 118.55199219 -15.3359375 120.0078125 C-15.55507812 120.66523438 -15.77421875 121.32265625 -16 122 C-17.14671608 118.1560785 -16.51721724 116.70875326 -15 113 C-14.77447474 111.61467843 -14.58624667 110.22292488 -14.4296875 108.828125 C-14.28789063 107.56484375 -14.14609375 106.3015625 -14 105 C-15.15208295 107.5598501 -16.29679373 110.12258513 -17.4375 112.6875 C-17.76298828 113.40873047 -18.08847656 114.12996094 -18.42382812 114.87304688 C-18.73642578 115.57880859 -19.04902344 116.28457031 -19.37109375 117.01171875 C-19.65911865 117.65584717 -19.94714355 118.29997559 -20.24389648 118.96362305 C-21.22480941 121.44168658 -21.22480941 121.44168658 -22 126 C-27.61 126 -33.22 126 -39 126 C-37.56711715 118.23855123 -35.68331101 112.68331101 -30 107 C-28.98234073 105.00892752 -27.98422146 103.00781177 -27 101 C-26.278125 100.01 -25.55625 99.02 -24.8125 98 C-22.73000185 94.55310651 -22.91802988 92.9345659 -23 89 C-21.6875 85.6875 -21.6875 85.6875 -20 83 C-18.515 82.505 -18.515 82.505 -17 82 C-16.505 82.99 -16.505 82.99 -16 84 C-8.86417967 80.10773437 -4.17498606 75.21770714 1 69 C1.5465625 68.39671875 2.093125 67.7934375 2.65625 67.171875 C11.67863275 56.51778474 15.37509642 42.99856179 14.5546875 29.26953125 C13.9822853 23.7399328 12.29196578 19.47951842 9 15 C8.56558594 14.34902344 8.13117188 13.69804687 7.68359375 13.02734375 C3.87148164 7.91194545 -0.85853767 4.70512345 -7 3 C-10.04548204 2.60487188 -13.05573371 2.47735653 -16.125 2.4375 C-16.8768457 2.42275635 -17.62869141 2.4080127 -18.40332031 2.39282227 C-26.31503438 2.53750648 -32.10962984 5.84592611 -38 11 C-37.71184155 7.83025707 -37.40094688 5.57527161 -35.5625 2.9375 C-24.7485922 -5.23886931 -12.27793305 -6.36633566 0 0 Z " fill="#D7D8D9" transform="translate(109,18)"/>
<path d="M0 0 C0.66 0.66 1.32 1.32 2 2 C0.60974609 2.41572266 0.60974609 2.41572266 -0.80859375 2.83984375 C-2.60490234 3.38318359 -2.60490234 3.38318359 -4.4375 3.9375 C-6.22994141 4.47697266 -6.22994141 4.47697266 -8.05859375 5.02734375 C-10.85867545 5.70889142 -10.85867545 5.70889142 -12 7 C-14.4375 7.1875 -14.4375 7.1875 -17 7 C-17.66 6.34 -18.32 5.68 -19 5 C-22.71480543 4.58724384 -25.11461964 4.52325673 -28.4375 6.3125 C-30.92212779 10.5860598 -30.63408024 15.17066794 -30 20 C-29.34 20.99 -28.68 21.98 -28 23 C-24.91634129 23.2502157 -24.91634129 23.2502157 -22 23 C-21.505 25.475 -21.505 25.475 -21 28 C-22.66015625 28.68359375 -24.3203125 29.3671875 -25.98046875 30.05078125 C-26.64691406 30.36402344 -27.31335938 30.67726562 -28 31 C-28.77730469 31.35707031 -29.55460937 31.71414062 -30.35546875 32.08203125 C-34.20172177 34.87155892 -36.48056034 38.47098933 -39.125 42.375 C-39.64964844 43.13039062 -40.17429687 43.88578125 -40.71484375 44.6640625 C-43.27450461 48.37071063 -45.74537767 52.097171 -48 56 C-48.66 55.67 -49.32 55.34 -50 55 C-50 54.01 -50 53.02 -50 52 C-51.485 52.495 -51.485 52.495 -53 53 C-54.26237731 50.47524538 -54.09856404 48.68799534 -54.0625 45.875 C-54.05347656 44.96492188 -54.04445313 44.05484375 -54.03515625 43.1171875 C-54.02355469 42.41851562 -54.01195313 41.71984375 -54 41 C-53.34 41 -52.68 41 -52 41 C-51.77957031 39.69289063 -51.77957031 39.69289063 -51.5546875 38.359375 C-49.34888191 26.64578668 -45.80226751 15.55811987 -36 8 C-33.71181883 6.55794546 -31.38219804 5.28638694 -29 4 C-28.67 3.34 -28.34 2.68 -28 2 C-19.34593143 -3.44885799 -9.59504269 -3.41625696 0 0 Z " fill="#E2E3E5" transform="translate(86,10)"/>
<path d="M0 0 C0.495 1.485 0.495 1.485 1 3 C-3.75 7 -3.75 7 -6 7 C-6.309375 7.94875 -6.61875 8.8975 -6.9375 9.875 C-8 13 -8 13 -9 15 C-8.01 15 -7.02 15 -6 15 C-5.67 14.34 -5.34 13.68 -5 13 C-2.9375 12.375 -2.9375 12.375 -1 12 C0.42310092 16.26930275 -1.24341433 19.36582988 -2.6875 23.4375 C-3.24612325 25.05858358 -3.80471689 26.67967737 -4.36328125 28.30078125 C-4.64123535 29.09693848 -4.91918945 29.8930957 -5.20556641 30.71337891 C-6.29216853 33.84094973 -7.33474904 36.98171462 -8.375 40.125 C-8.91666667 41.75 -9.45833333 43.375 -10 45 C-11.14671608 41.1560785 -10.51721724 39.70875326 -9 36 C-8.77447474 34.61467843 -8.58624667 33.22292488 -8.4296875 31.828125 C-8.28789063 30.56484375 -8.14609375 29.3015625 -8 28 C-9.15208295 30.5598501 -10.29679373 33.12258513 -11.4375 35.6875 C-11.76298828 36.40873047 -12.08847656 37.12996094 -12.42382812 37.87304688 C-12.73642578 38.57880859 -13.04902344 39.28457031 -13.37109375 40.01171875 C-13.65911865 40.65584717 -13.94714355 41.29997559 -14.24389648 41.96362305 C-15.22480941 44.44168658 -15.22480941 44.44168658 -16 49 C-21.61 49 -27.22 49 -33 49 C-31.56711715 41.23855123 -29.68331101 35.68331101 -24 30 C-22.98234073 28.00892752 -21.98422146 26.00781177 -21 24 C-20.278125 23.01 -19.55625 22.02 -18.8125 21 C-16.73000185 17.55310651 -16.91802988 15.9345659 -17 12 C-15.6875 8.6875 -15.6875 8.6875 -14 6 C-13.01 5.67 -12.02 5.34 -11 5 C-10.67 5.66 -10.34 6.32 -10 7 C-8.70626218 6.21172254 -7.41508049 5.41924884 -6.125 4.625 C-5.40570313 4.18414062 -4.68640625 3.74328125 -3.9453125 3.2890625 C-1.88206418 2.0146287 -1.88206418 2.0146287 0 0 Z " fill="#D2D3D3" transform="translate(103,95)"/>
<path d="M0 0 C0.66 0.33 1.32 0.66 2 1 C1.34 1.66 0.68 2.32 0 3 C1.32 3.66 2.64 4.32 4 5 C3.48508177 9.29350935 2.16695441 11.40977671 -0.75 14.5625 C-1.47574219 15.34882813 -2.20148437 16.13515625 -2.94921875 16.9453125 C-5 19 -5 19 -7.5625 20.9375 C-12.89261089 25.44759383 -16.7867806 31.12857631 -18 38 C-18.79125753 40.05833883 -19.6270487 42.09995599 -20.5 44.125 C-22.52305181 48.84153358 -24.09792524 52.73680926 -24.31640625 57.88671875 C-24.35830078 58.82451172 -24.40019531 59.76230469 -24.44335938 60.72851562 C-24.48267578 61.70498047 -24.52199219 62.68144531 -24.5625 63.6875 C-24.60568359 64.67556641 -24.64886719 65.66363281 -24.69335938 66.68164062 C-24.79941654 69.12095546 -24.90147714 71.56037113 -25 74 C-32.21531798 64.66986832 -30.93432916 50.09331761 -29.77734375 38.83300781 C-28.6965853 30.86812247 -26.81346137 22.6038342 -22 16 C-21.01 15.67 -20.02 15.34 -19 15 C-19.66 17.64 -20.32 20.28 -21 23 C-20.50693359 21.96552734 -20.50693359 21.96552734 -20.00390625 20.91015625 C-15.60974369 12.22900582 -9.62965878 3.28817617 0 0 Z " fill="#DADBDE" transform="translate(39,12)"/>
<path d="M0 0 C1.98773224 2.98159836 2.49521937 4.75711879 3.25 8.1875 C6.73817454 21.24667561 17.72984786 28.30795211 28.87109375 34.87109375 C32.34965462 36.71568841 35.22874601 37.15954464 39.10546875 37.31640625 C40.57983398 37.37924805 40.57983398 37.37924805 42.08398438 37.44335938 C43.10814453 37.48267578 44.13230469 37.52199219 45.1875 37.5625 C46.74114258 37.62727539 46.74114258 37.62727539 48.32617188 37.69335938 C50.88395702 37.79944263 53.44196098 37.90022586 56 38 C56.66 41.96 57.32 45.92 58 50 C52.0133869 52.99330655 47.71920765 52.84430646 41.46484375 50.90234375 C33.34084435 47.91594819 26.06488693 44.02740247 19 39 C17.948125 38.29875 16.89625 37.5975 15.8125 36.875 C6.27464588 28.47063 0.92349009 14.15463927 0.078125 1.80078125 C0.05234375 1.20652344 0.0265625 0.61226563 0 0 Z " fill="#CECFCF" transform="translate(6,72)"/>
<path d="M0 0 C0.33 0 0.66 0 1 0 C0.5677625 13.01034882 -1.98945299 24.46597485 -8.73046875 35.6953125 C-9.90919997 37.83516302 -10.54380544 39.61459713 -11 42 C-8.14781126 41.49396651 -5.67067869 41.05175181 -3 40 C-1.67993427 37.83075548 -1.67993427 37.83075548 -1 35 C0.22980229 32.87838744 1.55079842 30.83066002 2.87890625 28.76953125 C4.04331625 26.9974569 4.04331625 26.9974569 5 25 C5.66 25 6.32 25 7 25 C7.495 23.515 7.495 23.515 8 22 C8 24.64 8 27.28 8 30 C7.34 30 6.68 30 6 30 C5.9175 30.70125 5.835 31.4025 5.75 32.125 C4.79591181 35.78233807 3.36869168 38.05514008 1 41 C-0.97416268 42.05008653 -2.97582866 43.04987876 -5 44 C-7.81356892 46.56197123 -7.81356892 46.56197123 -10 49 C-9.67 49.99 -9.34 50.98 -9 52 C-7.02 51.505 -7.02 51.505 -5 51 C-10.88829607 57.39691965 -18.54927906 61.42444186 -27 63 C-29.00705243 63.645124 -31.01017187 64.30356015 -33 65 C-30.15643717 59.06150967 -26.55857306 54.0299202 -22.4375 48.9375 C-18.57977158 44.16808435 -15.39324474 39.69820176 -13 34 C-12.34 34 -11.68 34 -11 34 C-10.87882812 33.31292969 -10.75765625 32.62585938 -10.6328125 31.91796875 C-10.46523437 31.01691406 -10.29765625 30.11585937 -10.125 29.1875 C-9.88136719 27.84751953 -9.88136719 27.84751953 -9.6328125 26.48046875 C-9 24 -9 24 -7 21 C-6.43182698 19.78285872 -5.88996248 18.55309144 -5.375 17.3125 C-4.92125 16.219375 -4.4675 15.12625 -4 14 C-3.34 14 -2.68 14 -2 14 C-1.34 9.38 -0.68 4.76 0 0 Z " fill="#35373C" transform="translate(135,46)"/>
<path d="M0 0 C1.0828125 0.4640625 1.0828125 0.4640625 2.1875 0.9375 C4.80675861 1.9269977 7.25834328 2.48130819 10 3 C10.66 3.33 11.32 3.66 12 4 C12 4.99 12 5.98 12 7 C12.763125 7.268125 13.52625 7.53625 14.3125 7.8125 C17 9 17 9 18.30859375 10.44140625 C23.33270412 15.07101373 32.33736987 16.39430635 39 17 C39 16.34 39 15.68 39 15 C40.32 14.67 41.64 14.34 43 14 C43.495 16.97 43.495 16.97 44 20 C37.25426948 23.9487203 29.63066906 24.18990405 22 23 C14.97493893 21.12201338 8.02218259 18.0669285 2 14 C1.4375 12.0625 1.4375 12.0625 1 10 C-0.97901574 7.77022004 -0.97901574 7.77022004 -3 6 C-2.67 5.34 -2.34 4.68 -2 4 C-1.34 4.33 -0.68 4.66 0 5 C0 5.66 0 6.32 0 7 C0.66 7 1.32 7 2 7 C2.33 6.34 2.66 5.68 3 5 C2.2575 4.0409375 2.2575 4.0409375 1.5 3.0625 C0 1 0 1 0 0 Z " fill="#3C3C3F" transform="translate(23,112)"/>
<path d="M0 0 C2.64 0 5.28 0 8 0 C8 1.32 8 2.64 8 4 C3.71 5.65 -0.58 7.3 -5 9 C-3.35 8.67 -1.7 8.34 0 8 C1.76841153 7.79088856 3.53947363 7.60298246 5.3125 7.4375 C6.19550781 7.35371094 7.07851563 7.26992187 7.98828125 7.18359375 C8.98408203 7.09271484 8.98408203 7.09271484 10 7 C5.375 11 5.375 11 2 11 C2 11.66 2 12.32 2 13 C3.60785777 12.40572612 5.21117709 11.79916412 6.8125 11.1875 C7.70582031 10.85105469 8.59914062 10.51460937 9.51953125 10.16796875 C11.91924072 9.03802681 13.28423353 7.98937707 15 6 C17.475 6.99 17.475 6.99 20 8 C18.6875 9.5 18.6875 9.5 17 11 C16.01 11 15.02 11 14 11 C13.67 11.99 13.34 12.98 13 14 C10.15305782 16.59687293 7.43425664 17.66948172 3.75 18.6875 C2.85796875 18.93886719 1.9659375 19.19023437 1.046875 19.44921875 C0.37140625 19.63097656 -0.3040625 19.81273438 -1 20 C-1 18.68 -1 17.36 -1 16 C-3.97 15.505 -3.97 15.505 -7 15 C-6.34 14.01 -5.68 13.02 -5 12 C-5.7425 12.350625 -6.485 12.70125 -7.25 13.0625 C-10.1322726 14.04509293 -11.21176345 14.0326802 -14 13 C-14 12.34 -14 11.68 -14 11 C-13.34 11 -12.68 11 -12 11 C-12 10.34 -12 9.68 -12 9 C-12.75925781 8.95101563 -13.51851562 8.90203125 -14.30078125 8.8515625 C-15.29464844 8.77679688 -16.28851562 8.70203125 -17.3125 8.625 C-18.79169922 8.52058594 -18.79169922 8.52058594 -20.30078125 8.4140625 C-23 8 -23 8 -26 6 C-27.9896995 5.60986284 -29.99019869 5.26797351 -32 5 C-32.33 4.01 -32.66 3.02 -33 2 C-32.28457031 2.00523682 -31.56914062 2.01047363 -30.83203125 2.01586914 C-27.55469662 2.03680296 -24.27737613 2.04971202 -21 2.0625 C-19.87464844 2.07087891 -18.74929687 2.07925781 -17.58984375 2.08789062 C-11.62415603 2.10533416 -5.89712427 1.91781223 0 1 C0 0.67 0 0.34 0 0 Z " fill="#2F2F35" transform="translate(44,1)"/>
<path d="M0 0 C0.66 0.33 1.32 0.66 2 1 C1.34 1.66 0.68 2.32 0 3 C1.32 3.66 2.64 4.32 4 5 C3.48508177 9.29350935 2.16695441 11.40977671 -0.75 14.5625 C-1.47574219 15.34882813 -2.20148437 16.13515625 -2.94921875 16.9453125 C-5 19 -5 19 -7.5625 20.9375 C-11.52908223 24.29383881 -14.14633418 28.6907179 -17 33 C-18.0859375 31.1875 -18.0859375 31.1875 -19 29 C-18.06833174 26.96726926 -17.0650015 24.96615661 -16 23 C-16 21.68 -16 20.36 -16 19 C-16.66 19 -17.32 19 -18 19 C-16.70484844 14.0712288 -14.88090056 11.36088009 -11.25 7.8125 C-10.40953125 6.97332031 -9.5690625 6.13414063 -8.703125 5.26953125 C-5.91496602 2.92860587 -3.36914797 1.36930455 0 0 Z " fill="#DADBDE" transform="translate(39,12)"/>
<path d="M0 0 C2.2734375 2.1953125 2.2734375 2.1953125 4.375 5.125 C5.08398438 6.07632813 5.79296875 7.02765625 6.5234375 8.0078125 C8.29570196 11.59922673 8.23536184 13.22973983 7 17 C4.34101028 18.83174848 2.4356587 20.12914921 -0.8671875 19.83203125 C-3.86893616 18.66101941 -5.89231497 16.86547288 -8.3125 14.75 C-9.21613281 13.98171875 -10.11976562 13.2134375 -11.05078125 12.421875 C-13 10 -13 10 -12.99609375 7.37890625 C-11.89861713 4.75787385 -11.07220568 3.77770607 -8.75 2.1875 C-7.87601563 1.55908203 -7.87601563 1.55908203 -6.984375 0.91796875 C-4.35458512 -0.29856791 -2.86699072 -0.51605833 0 0 Z " fill="#C5C5C6" transform="translate(60,60)"/>
<path d="M0 0 C0.96808594 -0.00257813 1.93617187 -0.00515625 2.93359375 -0.0078125 C4.45533203 0.00378906 4.45533203 0.00378906 6.0078125 0.015625 C7.01457031 0.00789062 8.02132812 0.00015625 9.05859375 -0.0078125 C10.51458984 -0.00394531 10.51458984 -0.00394531 12 0 C12.88800293 0.00225586 13.77600586 0.00451172 14.69091797 0.00683594 C17.30104886 0.28345449 18.86199897 0.99330416 21.1328125 2.265625 C22.6178125 2.760625 22.6178125 2.760625 24.1328125 3.265625 C24.1328125 4.255625 24.1328125 5.245625 24.1328125 6.265625 C25.1228125 6.595625 26.1128125 6.925625 27.1328125 7.265625 C27.1328125 7.925625 27.1328125 8.585625 27.1328125 9.265625 C27.7928125 9.265625 28.4528125 9.265625 29.1328125 9.265625 C29.1328125 10.585625 29.1328125 11.905625 29.1328125 13.265625 C29.7928125 13.595625 30.4528125 13.925625 31.1328125 14.265625 C30.8028125 14.925625 30.4728125 15.585625 30.1328125 16.265625 C29.1428125 15.605625 28.1528125 14.945625 27.1328125 14.265625 C27.1328125 13.605625 27.1328125 12.945625 27.1328125 12.265625 C17.90962089 9.442199 7.21234203 7.13450605 -1.6796875 11.703125 C-2.44925781 12.17621094 -3.21882813 12.64929687 -4.01171875 13.13671875 C-5.8671875 14.265625 -5.8671875 14.265625 -7.8671875 14.265625 C-8.1971875 14.925625 -8.5271875 15.585625 -8.8671875 16.265625 C-9.1971875 14.615625 -9.5271875 12.965625 -9.8671875 11.265625 C-5.44314059 8.26869 -0.92776687 6.85177674 4.1328125 5.265625 C0.5028125 4.275625 -3.1271875 3.285625 -6.8671875 2.265625 C-4.34894926 -0.25261324 -3.48146703 0.00886675 0 0 Z " fill="#313036" transform="translate(81.8671875,5.734375)"/>
<path d="M0 0 C0.66 0.66 1.32 1.32 2 2 C0.60974609 2.41572266 0.60974609 2.41572266 -0.80859375 2.83984375 C-2.60490234 3.38318359 -2.60490234 3.38318359 -4.4375 3.9375 C-6.22994141 4.47697266 -6.22994141 4.47697266 -8.05859375 5.02734375 C-10.85867545 5.70889142 -10.85867545 5.70889142 -12 7 C-14.4375 7.1875 -14.4375 7.1875 -17 7 C-17.66 6.34 -18.32 5.68 -19 5 C-22.87443846 4.56138433 -25.14403263 4.42935509 -28.4375 6.625 C-29.283125 7.40875 -30.12875 8.1925 -31 9 C-32.42772033 10.09618977 -33.86582346 11.17895175 -35.3125 12.25 C-36.00988281 12.77078125 -36.70726562 13.2915625 -37.42578125 13.828125 C-37.94527344 14.21484375 -38.46476562 14.6015625 -39 15 C-39.66 14.34 -40.32 13.68 -41 13 C-38.25957787 10.01044859 -35.81926632 7.76271768 -32.25 5.8125 C-28.95188165 4.37321065 -28.95188165 4.37321065 -28 2 C-19.34593143 -3.44885799 -9.59504269 -3.41625696 0 0 Z " fill="#DEDEE0" transform="translate(86,10)"/>
<path d="M0 0 C0.66 0 1.32 0 2 0 C3.44249886 2.18469745 4.79294285 4.37456454 6.125 6.625 C9.63497235 12.35865025 13.05877501 16.60038897 19 20 C18.34 20.66 17.68 21.32 17 22 C16.34 21.67 15.68 21.34 15 21 C15.99 22.32 16.98 23.64 18 25 C16.35 25.33 14.7 25.66 13 26 C13 25.34 13 24.68 13 24 C12.34 24.33 11.68 24.66 11 25 C12.65 26.98 14.3 28.96 16 31 C13 31 13 31 10 29 C9.2448969 27.32564095 8.49715329 25.64654009 7.82421875 23.9375 C6.9791929 21.95108852 5.9807955 20.16480726 4.875 18.3125 C3.3359749 15.59355565 2.55576167 13.96406225 2 11 C1.649375 9.845 1.29875 8.69 0.9375 7.5 C0 4 0 4 0 0 Z " fill="#212124" transform="translate(10,93)"/>
<path d="M0 0 C1.9296875 1.0859375 1.9296875 1.0859375 4.6171875 3.0234375 C4.6171875 3.6834375 4.6171875 4.3434375 4.6171875 5.0234375 C3.99263672 5.00249023 3.36808594 4.98154297 2.72460938 4.95996094 C-0.1443631 4.87607906 -3.01307658 4.82455239 -5.8828125 4.7734375 C-6.86507812 4.73992188 -7.84734375 4.70640625 -8.859375 4.671875 C-17.93112562 4.55091833 -23.57484952 7.0664699 -30.3828125 13.0234375 C-30.09465405 9.85369457 -29.78375938 7.59870911 -27.9453125 4.9609375 C-19.26973549 -1.59864512 -10.56906121 -4.33158246 0 0 Z " fill="#D7D7DA" transform="translate(101.3828125,15.9765625)"/>
<path d="M0 0 C1.98 0.66 3.96 1.32 6 2 C4.6875 3.5 4.6875 3.5 3 5 C2.01 5 1.02 5 0 5 C-0.33 5.99 -0.66 6.98 -1 8 C-3.84694218 10.59687293 -6.56574336 11.66948172 -10.25 12.6875 C-11.58804688 13.06455078 -11.58804688 13.06455078 -12.953125 13.44921875 C-13.62859375 13.63097656 -14.3040625 13.81273437 -15 14 C-15 12.68 -15 11.36 -15 10 C-17.97 9.505 -17.97 9.505 -21 9 C-17.69138624 4.5236402 -15.66267045 2.15564703 -10 1 C-6.625 0.875 -6.625 0.875 -4 1 C-8.625 5 -8.625 5 -12 5 C-12 5.66 -12 6.32 -12 7 C-10.37061226 6.40776866 -8.74658872 5.80076372 -7.125 5.1875 C-6.22007813 4.85105469 -5.31515625 4.51460937 -4.3828125 4.16796875 C-1.70574151 3.10350976 -1.70574151 3.10350976 0 0 Z " fill="#3C3C42" transform="translate(58,7)"/>
<path d="M0 0 C1.0236264 0.00424484 1.0236264 0.00424484 2.06793213 0.00857544 C4.23817807 0.01973152 6.40800471 0.04482693 8.578125 0.0703125 C10.05337944 0.08034824 11.52864037 0.08947306 13.00390625 0.09765625 C16.61211442 0.11965563 20.22007875 0.15415367 23.828125 0.1953125 C23.498125 1.1853125 23.168125 2.1753125 22.828125 3.1953125 C21.838125 3.1953125 20.848125 3.1953125 19.828125 3.1953125 C19.6897522 4.138302 19.6897522 4.138302 19.54858398 5.1003418 C19.31083252 5.79168213 19.07308105 6.48302246 18.828125 7.1953125 C16.13501409 8.3554677 13.69019168 9.22141737 10.890625 10.0078125 C10.14876953 10.23662109 9.40691406 10.46542969 8.64257812 10.70117188 C3.11644493 12.33947247 3.11644493 12.33947247 0.828125 11.1953125 C11.20170131 5.63950384 11.20170131 5.63950384 16.828125 5.1953125 C16.828125 3.8753125 16.828125 2.5553125 16.828125 1.1953125 C15.838125 1.8553125 14.848125 2.5153125 13.828125 3.1953125 C4.00173558 4.79776985 -6.24096959 4.3023522 -16.171875 4.1953125 C-16.171875 3.8653125 -16.171875 3.5353125 -16.171875 3.1953125 C-15.058125 3.0096875 -15.058125 3.0096875 -13.921875 2.8203125 C-11.24959773 2.36176635 -11.24959773 2.36176635 -9.44824219 1.16845703 C-6.24051604 -0.20284246 -3.47914328 -0.02851757 0 0 Z " fill="#2A2A31" transform="translate(35.171875,-0.1953125)"/>
<path d="M0 0 C0.33 0 0.66 0 1 0 C0.493589 15.24297107 -3.83715758 27.76081373 -11 41 C-11.66 41 -12.32 41 -13 41 C-13.33 41.99 -13.66 42.98 -14 44 C-15.62890625 45.38671875 -15.62890625 45.38671875 -17.5625 46.6875 C-18.20316406 47.12449219 -18.84382813 47.56148437 -19.50390625 48.01171875 C-20.24447266 48.50091797 -20.24447266 48.50091797 -21 49 C-19.38102741 45.69918209 -17.64075691 42.47442567 -15.875 39.25 C-15.33617188 38.26515625 -14.79734375 37.2803125 -14.2421875 36.265625 C-13.62730469 35.14414063 -13.62730469 35.14414063 -13 34 C-12.34 34 -11.68 34 -11 34 C-10.87882812 33.31292969 -10.75765625 32.62585938 -10.6328125 31.91796875 C-10.46523437 31.01691406 -10.29765625 30.11585937 -10.125 29.1875 C-9.88136719 27.84751953 -9.88136719 27.84751953 -9.6328125 26.48046875 C-9 24 -9 24 -7 21 C-6.43182698 19.78285872 -5.88996248 18.55309144 -5.375 17.3125 C-4.92125 16.219375 -4.4675 15.12625 -4 14 C-3.34 14 -2.68 14 -2 14 C-1.34 9.38 -0.68 4.76 0 0 Z " fill="#535257" transform="translate(135,46)"/>
<path d="M0 0 C6.38432136 1.52479908 10.69672222 2.790769 15 8 C15.92232422 8.94166016 15.92232422 8.94166016 16.86328125 9.90234375 C22.50596882 15.77881499 28.38999141 23.05241629 29.25 31.4375 C28.90469303 35.35097895 27.85591941 37.43978887 25 40 C24.98582031 39.24976563 24.97164062 38.49953125 24.95703125 37.7265625 C24.48936792 27.69076019 21.46786937 19.95684397 14.69140625 12.47265625 C11.76324914 9.92319844 8.55208261 8.53107009 5 7 C5.66 6.67 6.32 6.34 7 6 C5.49336217 2.98672434 2.96833589 2.38943382 0 1 C0 0.67 0 0.34 0 0 Z " fill="#CDCED0" transform="translate(99,15)"/>
<path d="M0 0 C0.66 1.32 1.32 2.64 2 4 C-2.75 8 -2.75 8 -5 8 C-5 8.66 -5 9.32 -5 10 C-1.01080675 11.1004671 2.01080675 11.1004671 6 10 C1.75210588 14.71988236 -2.91708654 17.24560326 -9.03125 18.5625 C-11.75898841 19.16866409 -14.36524056 20.07783419 -17 21 C-12.59176839 12.39809673 -7.59799454 5.96985286 0 0 Z " fill="#54555A" transform="translate(119,90)"/>
<path d="M0 0 C0.66 0.66 1.32 1.32 2 2 C1.66226562 2.72445312 1.32453125 3.44890625 0.9765625 4.1953125 C0.53054687 5.16210938 0.08453125 6.12890625 -0.375 7.125 C-0.81585938 8.07632813 -1.25671875 9.02765625 -1.7109375 10.0078125 C-4.6367154 16.79916362 -5.38650001 22.5411254 -5.625 29.875 C-5.66367188 30.84953125 -5.70234375 31.8240625 -5.7421875 32.828125 C-5.83593033 35.2185672 -5.9216383 37.60901244 -6 40 C-11.4574818 33.01713509 -11.32872818 24.58345806 -11 16 C-10.195625 15.773125 -9.39125 15.54625 -8.5625 15.3125 C-7.716875 14.879375 -6.87125 14.44625 -6 14 C-5.36858988 11.76864953 -5.36858988 11.76864953 -5 9 C-1.909699 1.909699 -1.909699 1.909699 0 0 Z " fill="#CCCCCF" transform="translate(20,46)"/>
<path d="M0 0 C0.66644531 0.43570313 1.33289062 0.87140625 2.01953125 1.3203125 C8.5287377 5.52626128 15.14755192 9.38158931 22 13 C21.34 15.31 20.68 17.62 20 20 C11.31165681 18.27002016 6.33866536 11.2459674 1.46875 4.390625 C0 2 0 2 0 0 Z " fill="#ADAFAF" transform="translate(38,71)"/>
<path d="M0 0 C0.66 0.33 1.32 0.66 2 1 C1.34 1.66 0.68 2.32 0 3 C1.32 3.66 2.64 4.32 4 5 C3.50128936 9.45673159 1.97995638 11.57687178 -1.0625 14.8125 C-2.16271484 15.99779297 -2.16271484 15.99779297 -3.28515625 17.20703125 C-3.85105469 17.79871094 -4.41695312 18.39039062 -5 19 C-5.65234375 17.171875 -5.65234375 17.171875 -6 15 C-3.5625 12.25 -3.5625 12.25 -1 10 C-1.33 9.34 -1.66 8.68 -2 8 C-3.7015625 8.8971875 -3.7015625 8.8971875 -5.4375 9.8125 C-6.07558594 10.14894531 -6.71367188 10.48539063 -7.37109375 10.83203125 C-9.32267987 11.99019799 -9.32267987 11.99019799 -10 15 C-9.34 15 -8.68 15 -8 15 C-9.45044271 19.10958767 -11.51110752 22.43258745 -14 26 C-15.88158246 22.23683509 -14.18889938 17.86680867 -13 14 C-11.2371609 10.74283372 -9.39971393 7.69985696 -6 6 C-6 5.01 -6 4.02 -6 3 C-4.03533587 1.93224776 -2.03144641 0.93446535 0 0 Z " fill="#979899" transform="translate(39,12)"/>
<path d="M0 0 C2.01953125 1.96875 2.01953125 1.96875 3.8125 4.5 C4.41707031 5.3353125 5.02164063 6.170625 5.64453125 7.03125 C6.09183594 7.6809375 6.53914063 8.330625 7 9 C6.67 9.66 6.34 10.32 6 11 C3.69 10.34 1.38 9.68 -1 9 C-1 8.34 -1 7.68 -1 7 C-2.093125 7.45375 -3.18625 7.9075 -4.3125 8.375 C-4.92738281 8.63023438 -5.54226562 8.88546875 -6.17578125 9.1484375 C-8.26533932 10.06806692 -8.26533932 10.06806692 -11 12 C-13 10 -13 10 -13.0625 7.6875 C-10.94236096 2.32479537 -5.77484455 -0.96397561 0 0 Z " fill="#AAAAA7" transform="translate(60,60)"/>
<path d="M0 0 C1 3 1 3 0.37915039 4.80932617 C0.03875732 5.46392822 -0.30163574 6.11853027 -0.65234375 6.79296875 C-1.01650391 7.50517578 -1.38066406 8.21738281 -1.75585938 8.95117188 C-2.14580078 9.68916016 -2.53574219 10.42714844 -2.9375 11.1875 C-3.51661133 12.31188477 -3.51661133 12.31188477 -4.10742188 13.45898438 C-5.06271757 15.31060689 -6.03021577 17.15592452 -7 19 C-7.66 19 -8.32 19 -9 19 C-9.50471197 17.23050388 -10.00360685 15.45934777 -10.5 13.6875 C-10.7784375 12.70136719 -11.056875 11.71523437 -11.34375 10.69921875 C-12 8 -12 8 -12 5 C-8.04 3.35 -4.08 1.7 0 0 Z " fill="#0A0A0B" transform="translate(78,120)"/>
<path d="M0 0 C1.051875 0.433125 1.051875 0.433125 2.125 0.875 C5.05452503 2.02133588 8.00921653 3.02625654 11 4 C11.33 3.67 11.66 3.34 12 3 C15 2 15 2 17.4375 3.1875 C19.96828882 4.97757014 22.03576547 6.59926891 24 9 C24 10.32 24 11.64 24 13 C13.53495574 10.61234427 6.68312021 8.65013786 0 0 Z " fill="#2A292E" transform="translate(34,86)"/>
<path d="M0 0 C2.64 0 5.28 0 8 0 C8 1.32 8 2.64 8 4 C2.51459 5.56344857 -2.02630711 6.20861665 -7.78125 5.9765625 C-8.48020386 5.95153656 -9.17915771 5.92651062 -9.89929199 5.90072632 C-12.10009576 5.81950163 -14.29986566 5.72254766 -16.5 5.625 C-18.00516807 5.56666015 -19.51037679 5.50935929 -21.015625 5.453125 C-24.6776299 5.3140726 -28.33888329 5.16092122 -32 5 C-32.33 4.01 -32.66 3.02 -33 2 C-32.28457031 2.00523682 -31.56914062 2.01047363 -30.83203125 2.01586914 C-27.55469662 2.03680296 -24.27737613 2.04971202 -21 2.0625 C-19.87464844 2.07087891 -18.74929687 2.07925781 -17.58984375 2.08789062 C-11.62415603 2.10533416 -5.89712427 1.91781223 0 1 C0 0.67 0 0.34 0 0 Z " fill="#36363D" transform="translate(44,1)"/>
<path d="M0 0 C10.00313383 -0.63067043 10.00313383 -0.63067043 14.0625 1.9375 C14.701875 2.618125 15.34125 3.29875 16 4 C16.66 4.33 17.32 4.66 18 5 C18 5.66 18 6.32 18 7 C19.32 7.33 20.64 7.66 22 8 C21.32195312 7.94199219 20.64390625 7.88398438 19.9453125 7.82421875 C13.19227142 7.49685526 8.85589061 8.53100701 2.99609375 11.90625 C1 13 1 13 -1 13 C-1.33 13.66 -1.66 14.32 -2 15 C-2.33 13.35 -2.66 11.7 -3 10 C1.42404691 7.003065 5.93942063 5.58615174 11 4 C7.37 3.01 3.74 2.02 0 1 C0 0.67 0 0.34 0 0 Z " fill="#414145" transform="translate(75,7)"/>
<path d="M0 0 C0.33 0.99 0.66 1.98 1 3 C2.32 2.34 3.64 1.68 5 1 C5 6.61317354 2.54981822 9.77587133 -1 14 C-4.15105693 16.50622039 -6.88248743 18 -11 18 C-9.98842773 15.55536702 -9.32003652 14.21510651 -7.09375 12.71875 C-4.44244716 10.54230737 -3.58076816 8.4545915 -2.25 5.3125 C-1.82203125 4.31863281 -1.3940625 3.32476562 -0.953125 2.30078125 C-0.63859375 1.54152344 -0.3240625 0.78226562 0 0 Z " fill="#DDDEE0" transform="translate(116,79)"/>
<path d="M0 0 C5.75 -0.125 5.75 -0.125 8 1 C14.71931637 1.31951994 21.38013227 1.2316033 28 0 C28.33 0.99 28.66 1.98 29 3 C23.04408987 6.1764854 17.71176235 7.00095524 11 6 C7.15961759 4.62945461 3.5830348 2.94052175 0 1 C0 0.67 0 0.34 0 0 Z " fill="#97979B" transform="translate(38,129)"/>
<path d="M0 0 C1.05058594 0.42152344 2.10117187 0.84304687 3.18359375 1.27734375 C11.97403767 4.90763179 11.97403767 4.90763179 21.25 6.6875 C24.98055681 6.99837973 26.39600798 7.39600798 29 10 C28.34 10 27.68 10 27 10 C27 10.66 27 11.32 27 12 C21.73804127 12.24254867 17.75779823 11.54044603 12.8125 9.75 C11.02779297 9.12351562 11.02779297 9.12351562 9.20703125 8.484375 C6.01834031 7.00848882 4.32057245 5.58197026 2 3 C1.34 2.67 0.68 2.34 0 2 C0 1.34 0 0.68 0 0 Z " fill="#111113" transform="translate(35,117)"/>
<path d="M0 0 C0 0.33 0 0.66 0 1 C-1.24136719 0.91621094 -2.48273438 0.83242187 -3.76171875 0.74609375 C-5.40362444 0.64288825 -7.04555278 0.54004258 -8.6875 0.4375 C-9.50412109 0.38142578 -10.32074219 0.32535156 -11.16210938 0.26757812 C-15.29514123 0.01658429 -18.95824282 -0.11127743 -23 1 C-23 1.66 -23 2.32 -23 3 C-22.34 3.33 -21.68 3.66 -21 4 C-22.6396875 4.4021875 -22.6396875 4.4021875 -24.3125 4.8125 C-27.95586422 5.98578678 -28.56502297 6.41594275 -31 9 C-32.37927692 10.08390596 -33.77584392 11.14611436 -35.1875 12.1875 C-35.90292969 12.71730469 -36.61835937 13.24710938 -37.35546875 13.79296875 C-37.89816406 14.19128906 -38.44085938 14.58960937 -39 15 C-39.66 14.34 -40.32 13.68 -41 13 C-38.25957787 10.01044859 -35.81926632 7.76271768 -32.25 5.8125 C-28.95188165 4.37321065 -28.95188165 4.37321065 -28 2 C-18.80843735 -3.78728018 -10.1666164 -2.66665348 0 0 Z " fill="#C4C4C6" transform="translate(86,10)"/>
<path d="M0 0 C1 3 1 3 0.22265625 4.82421875 C-0.8515625 6.54947917 -1.92578125 8.27473958 -3 10 C-3.99 10 -4.98 10 -6 10 C-6 10.66 -6 11.32 -6 12 C-4.68 12 -3.36 12 -2 12 C-2.33 12.99 -2.66 13.98 -3 15 C-6.5625 16.6875 -6.5625 16.6875 -10 18 C-10.33 17.34 -10.66 16.68 -11 16 C-11.66 15.67 -12.32 15.34 -13 15 C-12.4070085 13.53708696 -11.80016177 12.07978487 -11.1875 10.625 C-10.85105469 9.81289062 -10.51460938 9.00078125 -10.16796875 8.1640625 C-9 6 -9 6 -6 4 C-6.33 5.65 -6.66 7.3 -7 9 C-4.04070881 6.24479785 -1.96318174 3.53372712 0 0 Z " fill="#363539" transform="translate(102,85)"/>
<path d="M0 0 C0.33 0 0.66 0 1 0 C1 2.64 1 5.28 1 8 C0.34 8 -0.32 8 -1 8 C-1.0825 8.70125 -1.165 9.4025 -1.25 10.125 C-2.18480138 13.70840529 -3.74402615 16.08050443 -6 19 C-6.99 19.33 -7.98 19.66 -9 20 C-9.66 19.34 -10.32 18.68 -11 18 C-10.51789063 17.25234375 -10.03578125 16.5046875 -9.5390625 15.734375 C-8.90742188 14.74953125 -8.27578125 13.7646875 -7.625 12.75 C-6.99851563 11.77546875 -6.37203125 10.8009375 -5.7265625 9.796875 C-4.34865148 7.56478385 -3.11687358 5.36912578 -2 3 C-1.34 3 -0.68 3 0 3 C0 2.01 0 1.02 0 0 Z " fill="#9E9EA1" transform="translate(142,68)"/>
<path d="M0 0 C0.66 0.33 1.32 0.66 2 1 C1.54109375 1.4125 1.0821875 1.825 0.609375 2.25 C-3.89351041 6.4880098 -6.51711645 10.33902551 -9 16 C-9.99 15.67 -10.98 15.34 -12 15 C-12.9375 12.9375 -12.9375 12.9375 -13 10 C-9.690214 5.38849939 -5.3230882 1.98068398 0 0 Z " fill="#313136" transform="translate(48,18)"/>
<path d="M0 0 C-0.265625 1.875 -0.265625 1.875 -1 4 C-2.671875 5.125 -2.671875 5.125 -4.75 6 C-8.27464877 7.59750268 -11.06871959 9.43512964 -14 12 C-13.68169969 8.49869654 -13.40659476 6.48791371 -11.125 3.75 C-7.1555673 0.48105543 -5.10162017 -0.22673867 0 0 Z " fill="#DDDDDE" transform="translate(85,17)"/>
<path d="M0 0 C3.83967445 1.21252877 5.37100676 4.40716872 7.375 7.75 C3.5 6.875 3.5 6.875 2.375 5.75 C-2.05348724 5.24388717 -4.82056182 6.55188017 -8.625 8.75 C-9.285 9.41 -9.945 10.07 -10.625 10.75 C-10.54603451 7.98620802 -10.16056568 6.28412211 -8.17578125 4.3046875 C-5.52377517 2.29123386 -3.21226837 0.91779096 0 0 Z " fill="#817E7B" transform="translate(57.625,59.25)"/>
<path d="M0 0 C1 2 1 2 0.14453125 5.0546875 C-0.29204562 6.33069258 -0.73656974 7.60399637 -1.1875 8.875 C-1.65374953 10.22782885 -2.11989382 11.58069397 -2.5859375 12.93359375 C-2.82280273 13.61276855 -3.05966797 14.29194336 -3.30371094 14.99169922 C-4.33437874 17.96444585 -5.32289187 20.95087689 -6.3125 23.9375 C-6.875 25.625 -7.4375 27.3125 -8 29 C-9.36718341 25.30860479 -8.47794455 23.53421524 -7 20 C-6.86239142 18.25342955 -6.78073181 16.50171345 -6.75 14.75 C-6.32307949 8.5805801 -3.81893132 4.72986906 0 0 Z " fill="#989899" transform="translate(101,111)"/>
<path d="M0 0 C0.66 0.33 1.32 0.66 2 1 C1.34 1.66 0.68 2.32 0 3 C1.32 3.66 2.64 4.32 4 5 C3.50128936 9.45673159 1.97995638 11.57687178 -1.0625 14.8125 C-2.16271484 15.99779297 -2.16271484 15.99779297 -3.28515625 17.20703125 C-3.85105469 17.79871094 -4.41695312 18.39039062 -5 19 C-5.33 17.68 -5.66 16.36 -6 15 C-3.36 12.69 -0.72 10.38 2 8 C1.34 7.34 0.68 6.68 0 6 C-3.01305957 6.38878188 -4.39685311 7.26456874 -7 9 C-6.875 6.1875 -6.875 6.1875 -6 3 C-3.0625 1.0625 -3.0625 1.0625 0 0 Z " fill="#757679" transform="translate(39,12)"/>
<path d="M0 0 C1.36365283 0.95824253 2.70794169 1.94721175 4 3 C3.01 3.33 2.02 3.66 1 4 C5.95 5.98 5.95 5.98 11 8 C4.75610765 9.56097309 0.50847556 6.30649769 -5 3.4375 C-7 2 -7 2 -8 -1 C-4.30741897 -2.23086034 -3.41793707 -1.66728638 0 0 Z " fill="#6E6D72" transform="translate(38,126)"/>
<path d="M0 0 C0.33 0.66 0.66 1.32 1 2 C0.690625 2.598125 0.38125 3.19625 0.0625 3.8125 C-1.18281989 6.3763939 -1.15636602 8.18541165 -1 11 C-2.65 11.33 -4.3 11.66 -6 12 C-5.773125 13.03125 -5.54625 14.0625 -5.3125 15.125 C-4.96098535 19.4837817 -5.76055351 21.32730775 -8 25 C-8.33 25 -8.66 25 -9 25 C-8.0826756 16.43830558 -6.71804928 8.39038187 -2 1 C-1.34 0.67 -0.68 0.34 0 0 Z " fill="#B4B5B6" transform="translate(19,27)"/>
<path d="M0 0 C6.6 0 13.2 0 20 0 C19.01 2.64 18.02 5.28 17 8 C16.67 7.34 16.34 6.68 16 6 C14.34561387 5.30341637 12.67745682 4.63903117 11 4 C10.01 3.34 9.02 2.68 8 2 C5.9507906 1.54860541 5.9507906 1.54860541 3.8125 1.375 C1.9253125 1.189375 1.9253125 1.189375 0 1 C0 0.67 0 0.34 0 0 Z " fill="#35353B" transform="translate(77,6)"/>
<path d="M0 0 C0.66 1.32 1.32 2.64 2 4 C-1.19668988 6.6486859 -4.39486597 8.93992341 -8 11 C-7.34 11.66 -6.68 12.32 -6 13 C-9 15 -9 15 -11.1875 14.625 C-11.785625 14.41875 -12.38375 14.2125 -13 14 C-9.06969212 8.66268841 -5.30101923 4.00808771 0 0 Z " fill="#5F6064" transform="translate(119,90)"/>
<path d="M0 0 C3.98542514 1.36643148 6.92539863 3.10109014 10 6 C10 6.99 10 7.98 10 9 C9.34 9 8.68 9 8 9 C8 8.34 8 7.68 8 7 C7.01 7.495 7.01 7.495 6 8 C7.65 9.98 9.3 11.96 11 14 C8 14 8 14 5 12 C3.91698965 9.70401807 2.92203709 7.36522558 2 5 C1.608125 4.030625 1.21625 3.06125 0.8125 2.0625 C0.544375 1.381875 0.27625 0.70125 0 0 Z " fill="#303033" transform="translate(15,110)"/>
<path d="M0 0 C-1.12672879 3.38018638 -2.48086363 4.5572011 -5 7 C-7.18975773 10.28463659 -7.99806563 13.20696275 -9 17 C-10.32 16.34 -11.64 15.68 -13 15 C-11.72488358 10.21831343 -10.05218827 7.5503244 -6.5 4.125 C-5.7059375 3.34382813 -4.911875 2.56265625 -4.09375 1.7578125 C-2 0 -2 0 0 0 Z " fill="#D3D3D5" transform="translate(34,16)"/>
<path d="M0 0 C2.98047995 0.41588092 5.64509232 0.85439685 8.4375 2 C11.59272521 3.2313074 14.64735955 3.60557171 18 4 C18 3.34 18 2.68 18 2 C19.32 1.67 20.64 1.34 22 1 C22.33 2.32 22.66 3.64 23 5 C20.12442297 5.08138426 17.25117738 5.14067851 14.375 5.1875 C13.16263672 5.22520508 13.16263672 5.22520508 11.92578125 5.26367188 C6.82310684 5.32589961 3.46860312 4.75491551 -1 2 C-0.67 1.34 -0.34 0.68 0 0 Z " fill="#2A2A2E" transform="translate(44,125)"/>
<path d="M0 0 C1.32 0.33 2.64 0.66 4 1 C3.01 1.33 2.02 1.66 1 2 C0.84587646 2.64928467 0.69175293 3.29856934 0.53295898 3.9675293 C0.35708252 4.63824463 0.18120605 5.30895996 0 6 C-2.69311091 7.1601552 -5.13793332 8.02610487 -7.9375 8.8125 C-8.67935547 9.04130859 -9.42121094 9.27011719 -10.18554688 9.50585938 C-15.71168007 11.14415997 -15.71168007 11.14415997 -18 10 C-8.94897383 5.15251365 -8.94897383 5.15251365 -4.5 4.4375 C-3.675 4.293125 -2.85 4.14875 -2 4 C-0.56362302 2.04836882 -0.56362302 2.04836882 0 0 Z " fill="#1A1A1E" transform="translate(54,1)"/>
<path d="M0 0 C1.45903258 0.30921884 2.91720722 0.62248799 4.375 0.9375 C5.18710938 1.11152344 5.99921875 1.28554688 6.8359375 1.46484375 C9 2 9 2 11 3 C11.72159424 4.64363134 12.39351421 6.31050386 13 8 C12.07767578 7.67515625 12.07767578 7.67515625 11.13671875 7.34375 C10.32847656 7.0653125 9.52023438 6.786875 8.6875 6.5 C7.88699219 6.2215625 7.08648437 5.943125 6.26171875 5.65625 C3.91230578 4.86066893 3.91230578 4.86066893 1 5 C0.34 5 -0.32 5 -1 5 C-0.67 3.35 -0.34 1.7 0 0 Z " fill="#303036" transform="translate(95,34)"/>
<path d="M0 0 C1.97457721 2.96186582 2.52972853 4.78268422 3.3125 8.1875 C4.68167996 13.49483676 6.79730056 17.58204701 10 22 C9.01 22.99 8.02 23.98 7 25 C-0.49040067 7.84641068 -0.49040067 7.84641068 0 0 Z " fill="#ABACAD" transform="translate(6,72)"/>
<path d="M0 0 C0.99 0.33 1.98 0.66 3 1 C2.40165275 5.14298667 0.99335715 8.18194377 -1.0625 11.8125 C-1.61035156 12.78832031 -2.15820312 13.76414062 -2.72265625 14.76953125 C-3.35494141 15.87361328 -3.35494141 15.87361328 -4 17 C-5.29366967 13.11899098 -4.43316568 11.79788906 -3 8 C-2.73445313 7.28457031 -2.46890625 6.56914062 -2.1953125 5.83203125 C-1.47163479 3.8849936 -0.73667968 1.94215553 0 0 Z M3 0 C5 1 5 1 5 1 Z " fill="#444448" transform="translate(22,19)"/>
<path d="M0 0 C2.97 0.99 5.94 1.98 9 3 C9 3.66 9 4.32 9 5 C8.01 5.495 8.01 5.495 7 6 C7 6.66 7 7.32 7 8 C9.475 8.99 9.475 8.99 12 10 C11.01 10.495 11.01 10.495 10 11 C6.70560113 9.78500152 3.77621402 8.14722803 1 6 C-0.0625 2.6875 -0.0625 2.6875 0 0 Z " fill="#545357" transform="translate(24,120)"/>
<path d="M0 0 C0.66 0.33 1.32 0.66 2 1 C1.48612374 5.49641723 -0.18560752 7.54231781 -3 11 C-4.44055824 13.61742107 -5.73715076 16.29293487 -7 19 C-7.66 18.67 -8.32 18.34 -9 18 C-8.566875 17.360625 -8.13375 16.72125 -7.6875 16.0625 C-6.24940401 13.45262209 -5.37798895 11.25263917 -4.5 8.4375 C-3.45522272 5.12074672 -2.3835396 2.61054337 0 0 Z " fill="#454548" transform="translate(85,109)"/>
<path d="M0 0 C3.4791132 1.27121444 6.26088915 2.76209155 9.25 4.9375 C13.6142982 7.93749658 17.90843206 9.62780439 23 11 C17.46226829 13.00891461 12.08165137 10.35200292 7 8 C4.30049401 5.9314303 2.033872 3.72853955 0 1 C0 0.67 0 0.34 0 0 Z " fill="#838387" transform="translate(34,86)"/>
<path d="M0 0 C1.30324219 -0.01417969 2.60648438 -0.02835938 3.94921875 -0.04296875 C7.3125 0.1875 7.3125 0.1875 10.3125 2.1875 C9.41942139 2.27052368 9.41942139 2.27052368 8.50830078 2.35522461 C5.81762785 2.60768865 3.12757714 2.86626816 0.4375 3.125 C-0.49964844 3.21201172 -1.43679687 3.29902344 -2.40234375 3.38867188 C-3.29824219 3.47568359 -4.19414063 3.56269531 -5.1171875 3.65234375 C-6.35831299 3.77017212 -6.35831299 3.77017212 -7.62451172 3.89038086 C-9.7456666 4.08527363 -9.7456666 4.08527363 -11.6875 5.1875 C-12.3475 3.8675 -13.0075 2.5475 -13.6875 1.1875 C-9.08490305 0.29552385 -4.68601145 0.02331349 0 0 Z " fill="#1B1A1F" transform="translate(85.6875,30.8125)"/>
<path d="M0 0 C0.6875 1.8125 0.6875 1.8125 1 4 C-0.1875 5.4375 -0.1875 5.4375 -2 7 C-2.99 8.3303125 -2.99 8.3303125 -4 9.6875 C-4.66 10.450625 -5.32 11.21375 -6 12 C-6.99 12 -7.98 12 -9 12 C-7.72232235 7.00544191 -5.87088216 4.38702189 -2 1 C-1.34 0.67 -0.68 0.34 0 0 Z " fill="#DADADB" transform="translate(103,98)"/>
<path d="M0 0 C0.33 0 0.66 0 1 0 C1.18175781 0.84884766 1.18175781 0.84884766 1.3671875 1.71484375 C1.53476563 2.44832031 1.70234375 3.18179688 1.875 3.9375 C2.03742187 4.66839844 2.19984375 5.39929688 2.3671875 6.15234375 C2.82961523 8.20700294 2.82961523 8.20700294 5 9 C5.6328125 11.06640625 5.6328125 11.06640625 6.125 13.5625 C6.29257812 14.38878906 6.46015625 15.21507813 6.6328125 16.06640625 C6.75398438 16.70449219 6.87515625 17.34257813 7 18 C0.68574402 12.02705515 0.68574402 12.02705515 -1 8 C-0.94300704 5.22288837 -0.51247924 2.74875229 0 0 Z " fill="#2F2F31" transform="translate(10,76)"/>
<path d="M0 0 C-4.42236821 4.27495594 -9.19839226 5.51298598 -15 7 C-15.33 5.35 -15.66 3.7 -16 2 C-10.25 1 -10.25 1 -8 1 C-6.7934375 0.4740625 -6.7934375 0.4740625 -5.5625 -0.0625 C-3 -1 -3 -1 0 0 Z " fill="#5E5F64" transform="translate(58,14)"/>
<path d="M0 0 C10.00313383 -0.63067043 10.00313383 -0.63067043 14.0625 1.9375 C14.701875 2.618125 15.34125 3.29875 16 4 C16.66 4.33 17.32 4.66 18 5 C18 5.66 18 6.32 18 7 C19.32 7.33 20.64 7.66 22 8 C20.35 8 18.7 8 17 8 C17 7.34 17 6.68 17 6 C14.36 6 11.72 6 9 6 C9.66 5.34 10.32 4.68 11 4 C7.37 3.01 3.74 2.02 0 1 C0 0.67 0 0.34 0 0 Z " fill="#6B6B6F" transform="translate(75,7)"/>
<path d="M0 0 C0.33 0.66 0.66 1.32 1 2 C1.33 1.67 1.66 1.34 2 1 C3.32594105 0.63837971 4.65938457 0.30271961 6 0 C-0.15034169 9.59453303 -0.15034169 9.59453303 -4 13 C-5.0169313 10.34501768 -5.13022151 9.30844625 -4.00390625 6.640625 C-3.52824219 5.85171875 -3.05257813 5.0628125 -2.5625 4.25 C-2.08941406 3.45078125 -1.61632812 2.6515625 -1.12890625 1.828125 C-0.75636719 1.22484375 -0.38382813 0.6215625 0 0 Z " fill="#C2C3C5" transform="translate(25,32)"/>
<path d="M0 0 C3 1 3 1 4 3 C7.04039947 4.90367354 9.70564514 5.34518251 13.25 5.625 C14.14203125 5.69976562 15.0340625 5.77453125 15.953125 5.8515625 C16.96632813 5.92503906 16.96632813 5.92503906 18 6 C18 6.33 18 6.66 18 7 C9.82632933 7.4485551 4.02436254 7.40744316 -3 3 C-2.01 2.01 -1.02 1.02 0 0 Z " fill="#535257" transform="translate(41,124)"/>
<path d="M0 0 C0 0.66 0 1.32 0 2 C0.66 2 1.32 2 2 2 C2 3.32 2 4.64 2 6 C2.66 6.33 3.32 6.66 4 7 C3.67 7.66 3.34 8.32 3 9 C2.01 8.34 1.02 7.68 0 7 C0 6.34 0 5.68 0 5 C-2.64 4.34 -5.28 3.68 -8 3 C-4.93882432 0.37613513 -4.26826873 0 0 0 Z " fill="#39383E" transform="translate(109,13)"/>
<path d="M0 0 C5.94 0 11.88 0 18 0 C18.33 2.31 18.66 4.62 19 7 C18.67 6.34 18.34 5.68 18 5 C17.34 5 16.68 5 16 5 C16 4.34 16 3.68 16 3 C10.72 2.34 5.44 1.68 0 1 C0 0.67 0 0.34 0 0 Z " fill="#8E8F91" transform="translate(44,110)"/>
<path d="M0 0 C0.66 0.33 1.32 0.66 2 1 C2 2.32 2 3.64 2 5 C1.34 5 0.68 5 0 5 C-0.33 5.99 -0.66 6.98 -1 8 C-2.62890625 9.38671875 -2.62890625 9.38671875 -4.5625 10.6875 C-5.52349609 11.34298828 -5.52349609 11.34298828 -6.50390625 12.01171875 C-6.99761719 12.33785156 -7.49132812 12.66398437 -8 13 C-6.53181332 9.89257577 -4.79975 7.09528261 -2.875 4.25 C-2.33617188 3.45078125 -1.79734375 2.6515625 -1.2421875 1.828125 C-0.62730469 0.92320313 -0.62730469 0.92320313 0 0 Z " fill="#4F5054" transform="translate(122,82)"/>
<path d="M0 0 C1.32963842 3.98891525 0.38405007 7.18462836 -0.4375 11.1875 C-0.65889648 12.31188477 -0.65889648 12.31188477 -0.88476562 13.45898438 C-1.24972791 15.30734174 -1.62397411 17.15386161 -2 19 C-2.33 18.34 -2.66 17.68 -3 17 C-3.66 17 -4.32 17 -5 17 C-4.53444296 10.59859065 -2.85288164 5.73230171 0 0 Z " fill="#5E5E61" transform="translate(37,34)"/>
<path d="M0 0 C1.79398267 0.95399078 3.58511655 1.91334026 5.375 2.875 C6.37273438 3.40867187 7.37046875 3.94234375 8.3984375 4.4921875 C11 6 11 6 13 8 C10.1875 8.6875 10.1875 8.6875 7 9 C5.375 7.8125 5.375 7.8125 4 6 C3.278125 5.319375 2.55625 4.63875 1.8125 3.9375 C0 2 0 2 0 0 Z " fill="#999897" transform="translate(45,76)"/>
<path d="M0 0 C0 0.66 0 1.32 0 2 C-8.42857143 4.28571429 -8.42857143 4.28571429 -13 4 C-13 3.34 -13 2.68 -13 2 C-11.39935157 1.46845258 -9.79431126 0.95011647 -8.1875 0.4375 C-7.29417969 0.14746094 -6.40085937 -0.14257812 -5.48046875 -0.44140625 C-3 -1 -3 -1 0 0 Z " fill="#ADADB2" transform="translate(67,130)"/>
<path d="M0 0 C6.86036401 0.65965039 13.34443923 2.2362764 20 4 C20 4.33 20 4.66 20 5 C12.45709983 5.4946164 6.941085 3.90617391 0 1 C0 0.67 0 0.34 0 0 Z " fill="#E0E0E0" transform="translate(32,108)"/>
<path d="M0 0 C0.33 0.66 0.66 1.32 1 2 C-1.19737263 7.42018581 -4.06132612 11.75458573 -9 15 C-9.66 14.67 -10.32 14.34 -11 14 C-10.37351562 13.24074219 -9.74703125 12.48148438 -9.1015625 11.69921875 C-8.28429687 10.70535156 -7.46703125 9.71148437 -6.625 8.6875 C-5.81289062 7.70136719 -5.00078125 6.71523437 -4.1640625 5.69921875 C-1.94395043 3.01091621 -1.94395043 3.01091621 0 0 Z " fill="#C2C2C3" transform="translate(115,80)"/>
<path d="M0 0 C0.66 0.66 1.32 1.32 2 2 C1.2116391 3.77230751 0.41918653 5.54279534 -0.375 7.3125 C-0.81585937 8.29863281 -1.25671875 9.28476562 -1.7109375 10.30078125 C-3 13 -3 13 -5 16 C-5.50212051 9.97455391 -4.12689062 6.14869539 -1 1 C-0.67 0.67 -0.34 0.34 0 0 Z " fill="#A1A3A6" transform="translate(20,46)"/>
<path d="M0 0 C0.33 0 0.66 0 1 0 C1.4946164 7.54290017 -0.09382609 13.058915 -3 20 C-3.33 20 -3.66 20 -4 20 C-4.34841982 15.35440233 -3.45112494 12.17964609 -1.734375 7.96875 C-0.7611366 5.35964279 -0.34442127 2.75537018 0 0 Z " fill="#46454A" transform="translate(107,65)"/>
<path d="M0 0 C3.96 0.33 7.92 0.66 12 1 C11.01 1.495 11.01 1.495 10 2 C10 2.66 10 3.32 10 4 C2.57142857 4.14285714 2.57142857 4.14285714 -1 3 C-0.67 2.01 -0.34 1.02 0 0 Z " fill="#232226" transform="translate(52,125)"/>
<path d="M0 0 C-1.5885342 4.28904235 -4.43127368 6.32345526 -8 9 C-8.66 9 -9.32 9 -10 9 C-8.13405729 4.41995879 -5.20913241 0 0 0 Z " fill="#27272C" transform="translate(134,88)"/>
<path d="M0 0 C0.99 0.33 1.98 0.66 3 1 C3.56638908 5.81430721 1.82561627 8.20307814 -1 12 C-3 9 -3 9 -3 7 C-2.34 7 -1.68 7 -1 7 C-0.67 4.69 -0.34 2.38 0 0 Z " fill="#6C6D70" transform="translate(125,73)"/>
<path d="M0 0 C0.66 0 1.32 0 2 0 C2.66 3.3 3.32 6.6 4 10 C3.01 10.66 2.02 11.32 1 12 C-0.26237731 9.47524538 -0.09856404 7.68799534 -0.0625 4.875 C-0.05347656 3.96492188 -0.04445313 3.05484375 -0.03515625 2.1171875 C-0.02355469 1.41851562 -0.01195313 0.71984375 0 0 Z " fill="#A6A6A8" transform="translate(32,51)"/>
<path d="M0 0 C0.98484375 0.10183594 1.9696875 0.20367187 2.984375 0.30859375 C4.10585937 0.43427734 4.10585937 0.43427734 5.25 0.5625 C2.53060541 2.0201935 0.00245727 2.98692664 -3 3.6875 C-4.2375 3.97625 -5.475 4.265 -6.75 4.5625 C-6.75 3.9025 -6.75 3.2425 -6.75 2.5625 C-7.74 1.9025 -8.73 1.2425 -9.75 0.5625 C-6.33860997 -0.53401823 -3.54344419 -0.37965473 0 0 Z " fill="#D6D7D9" transform="translate(82.75,10.4375)"/>
<path d="M0 0 C2.31 0 4.62 0 7 0 C7.33 1.32 7.66 2.64 8 4 C8.66 4 9.32 4 10 4 C10 4.66 10 5.32 10 6 C7.0625 5.625 7.0625 5.625 4 5 C3.67 4.34 3.34 3.68 3 3 C2.01 2.67 1.02 2.34 0 2 C0 1.34 0 0.68 0 0 Z " fill="#343339" transform="translate(102,3)"/>
<path d="M0 0 C2.0961314 3.14419711 2.26710777 3.52126226 1.8125 7 C1.73644531 7.680625 1.66039063 8.36125 1.58203125 9.0625 C0.88068989 11.39716654 -0.17550766 12.42631388 -2 14 C-2.05437607 12.41705218 -2.09296271 10.83355744 -2.125 9.25 C-2.14820312 8.36828125 -2.17140625 7.4865625 -2.1953125 6.578125 C-1.99139502 3.8864142 -1.36551721 2.30095026 0 0 Z " fill="#B7B8BB" transform="translate(126,41)"/>
<path d="M0 0 C3.63 1.32 7.26 2.64 11 4 C11 5.32 11 6.64 11 8 C6.64425364 7.51602818 4.9086741 6.20957142 2 3 C1.34 2.67 0.68 2.34 0 2 C0 1.34 0 0.68 0 0 Z " fill="#1B1B1D" transform="translate(35,117)"/>
<path d="M0 0 C4.95 0.99 4.95 0.99 10 2 C10 2.99 10 3.98 10 5 C7.69 5 5.38 5 3 5 C3 4.34 3 3.68 3 3 C2.01 3 1.02 3 0 3 C0 2.01 0 1.02 0 0 Z " fill="#17161B" transform="translate(36,104)"/>
<path d="M0 0 C3.3 0 6.6 0 10 0 C6.72220127 3.27779873 6.1639187 3.40494034 1.8125 3.6875 C0.91144531 3.75324219 0.01039062 3.81898437 -0.91796875 3.88671875 C-1.94857422 3.94279297 -1.94857422 3.94279297 -3 4 C-2.34 3.67 -1.68 3.34 -1 3 C-0.67 2.01 -0.34 1.02 0 0 Z " fill="#212127" transform="translate(18,0)"/>
<path d="M0 0 C0.9075 0.185625 1.815 0.37125 2.75 0.5625 C5.68314324 0.95734621 7.2644657 0.94691572 10 0 C7.64531545 2.72647685 5.4591583 3.98756342 2 5 C-0.3125 4.625 -0.3125 4.625 -2 4 C-2 3.34 -2 2.68 -2 2 C-1.34 2 -0.68 2 0 2 C0 1.34 0 0.68 0 0 Z " fill="#2B2B30" transform="translate(32,10)"/>
<path d="M0 0 C0.66 0.33 1.32 0.66 2 1 C1.01 2.32 0.02 3.64 -1 5 C-0.34 5.66 0.32 6.32 1 7 C0.01 7.66 -0.98 8.32 -2 9 C-3.32 8.67 -4.64 8.34 -6 8 C-4.02 5.36 -2.04 2.72 0 0 Z " fill="#87888C" transform="translate(112,96)"/>
<path d="M0 0 C0.94875 0.04125 1.8975 0.0825 2.875 0.125 C2.215 2.105 1.555 4.085 0.875 6.125 C-1.105 4.805 -3.085 3.485 -5.125 2.125 C-3.125 0.125 -3.125 0.125 0 0 Z " fill="#BABABC" transform="translate(57.125,83.875)"/>
<path d="M0 0 C0.99 0.33 1.98 0.66 3 1 C-2.59116022 4.8121547 -2.59116022 4.8121547 -5.3125 6.0625 C-7.35897871 6.95072841 -7.35897871 6.95072841 -8 10 C-8.66 9.34 -9.32 8.68 -10 8 C-8.71064081 6.85157077 -7.41843421 5.70633773 -6.125 4.5625 C-5.04605469 3.60537109 -5.04605469 3.60537109 -3.9453125 2.62890625 C-2 1 -2 1 0 0 Z " fill="#717173" transform="translate(81,21)"/>
<path d="M0 0 C0 3 0 3 -1.375 4.5 C-1.91125 4.995 -2.4475 5.49 -3 6 C-3.99 7.485 -3.99 7.485 -5 9 C-5.99 9 -6.98 9 -8 9 C-6.64531705 4.12314139 -4.28324091 2.51407619 0 0 Z " fill="#C8C9CB" transform="translate(36,19)"/>
<path d="M0 0 C1.32 0.33 2.64 0.66 4 1 C2.02 3.31 0.04 5.62 -2 8 C-3 4 -3 4 -2 2 C-1.34 2 -0.68 2 0 2 C0 1.34 0 0.68 0 0 Z " fill="#2E2E31" transform="translate(28,15)"/>
<path d="M0 0 C1.62978448 0.92915757 3.25368275 1.86864534 4.875 2.8125 C5.77992187 3.33457031 6.68484375 3.85664062 7.6171875 4.39453125 C10 6 10 6 12 9 C8.61638481 8.38271885 6.47997439 7.13020282 3.75 5.0625 C3.04359375 4.53785156 2.3371875 4.01320313 1.609375 3.47265625 C1.07828125 2.98667969 0.5471875 2.50070313 0 2 C0 1.34 0 0.68 0 0 Z " fill="#6F6F71" transform="translate(46,82)"/>
<path d="M0 0 C0.66 0.99 1.32 1.98 2 3 C1.34 3 0.68 3 0 3 C0.226875 4.03125 0.45375 5.0625 0.6875 6.125 C1.03901465 10.4837817 0.23944649 12.32730775 -2 16 C-2.33 16 -2.66 16 -3 16 C-2.40984815 10.49191603 -1.43336231 5.35121931 0 0 Z " fill="#ABACAE" transform="translate(13,36)"/>
<path d="M0 0 C1.5778125 0.4021875 1.5778125 0.4021875 3.1875 0.8125 C3.1875 1.1425 3.1875 1.4725 3.1875 1.8125 C1.5478125 2.2146875 1.5478125 2.2146875 -0.125 2.625 C-3.42942663 3.68913739 -4.76210422 4.15904664 -6.8125 6.8125 C-7.4725 6.1525 -8.1325 5.4925 -8.8125 4.8125 C-4.75096154 -0.23365385 -4.75096154 -0.23365385 0 0 Z " fill="#CCCCCE" transform="translate(61.8125,12.1875)"/>
<path d="M0 0 C-1.125 1.5625 -1.125 1.5625 -3 3 C-6.1875 2.6875 -6.1875 2.6875 -9 2 C-9 1.34 -9 0.68 -9 0 C-5.93109813 -1.53445094 -3.29905734 -0.54984289 0 0 Z " fill="#ECEDEF" transform="translate(72,11)"/>
<path d="M0 0 C1.31625194 2.63250388 0.74813658 3.80179056 0.0625 6.625 C-0.13214844 7.44226563 -0.32679687 8.25953125 -0.52734375 9.1015625 C-0.68332031 9.72804687 -0.83929688 10.35453125 -1 11 C-1.99 10.34 -2.98 9.68 -4 9 C-2.94124926 5.59687262 -1.99097846 2.98646769 0 0 Z " fill="#444445" transform="translate(95,122)"/>
<path d="M0 0 C0.66 1.32 1.32 2.64 2 4 C0.6875 5.5 0.6875 5.5 -1 7 C-1.99 7 -2.98 7 -4 7 C-3.39816251 4.97954558 -2.72693904 2.97888961 -2 1 C-1.34 0.67 -0.68 0.34 0 0 Z " fill="#969698" transform="translate(91,100)"/>
<path d="M0 0 C2.97 0.495 2.97 0.495 6 1 C0.85714286 5.42857143 0.85714286 5.42857143 -3 6 C-2.01 4.02 -1.02 2.04 0 0 Z " fill="#343539" transform="translate(122,87)"/>
<path d="M0 0 C0 3 0 3 -1 6 C-0.34 6.33 0.32 6.66 1 7 C-0.98 7.99 -0.98 7.99 -3 9 C-3.66 8.34 -4.32 7.68 -5 7 C-3.35 4.69 -1.7 2.38 0 0 Z " fill="#9C9DA0" transform="translate(136,79)"/>
<path d="M0 0 C0.90105469 0.00902344 1.80210938 0.01804687 2.73046875 0.02734375 C3.41753906 0.03894531 4.10460937 0.05054688 4.8125 0.0625 C4.8125 0.3925 4.8125 0.7225 4.8125 1.0625 C-0.02991633 2.39833899 -4.12187617 3.31578119 -9.1875 3.0625 C-7.31499103 -0.68251794 -3.72136574 -0.04832943 0 0 Z " fill="#343438" transform="translate(87.1875,12.9375)"/>
<path d="M0 0 C2.64 0 5.28 0 8 0 C8 1.32 8 2.64 8 4 C5.36 3.67 2.72 3.34 0 3 C0 2.01 0 1.02 0 0 Z " fill="#323138" transform="translate(44,1)"/>
<path d="M0 0 C0.66 0.66 1.32 1.32 2 2 C-1.06246747 3.78409802 -3.22079273 4.22880021 -6.75 4.125 C-7.54921875 4.10695313 -8.3484375 4.08890625 -9.171875 4.0703125 C-9.77515625 4.04710938 -10.3784375 4.02390625 -11 4 C-11 3.67 -11 3.34 -11 3 C-9.02 2.67 -7.04 2.34 -5 2 C-5 1.67 -5 1.34 -5 1 C-2.625 0.375 -2.625 0.375 0 0 Z " fill="#8E8E91" transform="translate(62,120)"/>
<path d="M0 0 C1.32 0.66 2.64 1.32 4 2 C4 3.32 4 4.64 4 6 C2.0625 5.625 2.0625 5.625 0 5 C-0.33 4.34 -0.66 3.68 -1 3 C-0.67 2.01 -0.34 1.02 0 0 Z " fill="#C5C6C6" transform="translate(22,99)"/>
<path d="M0 0 C3 1.75 3 1.75 6 4 C6 5.32 6 6.64 6 8 C2.24623848 6.74874616 1.75926711 5.4347596 0 2 C0 1.34 0 0.68 0 0 Z " fill="#B6B6B7" transform="translate(38,71)"/>
<path d="M0 0 C0.99 0.33 1.98 0.66 3 1 C2.01 2.98 1.02 4.96 0 7 C-0.99 6.34 -1.98 5.68 -3 5 C-1.125 1.125 -1.125 1.125 0 0 Z " fill="#BDBDBC" transform="translate(53,68)"/>
<path d="M0 0 C1.65 0.33 3.3 0.66 5 1 C5 1.99 5 2.98 5 4 C4.01 4.495 4.01 4.495 3 5 C2.34 4.34 1.68 3.68 1 3 C-0.65 3.66 -2.3 4.32 -4 5 C-2.68 3.35 -1.36 1.7 0 0 Z " fill="#AAABAD" transform="translate(36,17)"/>
<path d="M0 0 C0.86625 0.556875 0.86625 0.556875 1.75 1.125 C1.09 2.445 0.43 3.765 -0.25 5.125 C-0.58 4.465 -0.91 3.805 -1.25 3.125 C-2.89363134 2.40340576 -4.56050386 1.73148579 -6.25 1.125 C-2.80384615 -1.09038462 -2.80384615 -1.09038462 0 0 Z " fill="#3D3C42" transform="translate(94.25,8.875)"/>
<path d="M0 0 C1.32 0.33 2.64 0.66 4 1 C3.01 1.33 2.02 1.66 1 2 C0.835 2.66 0.67 3.32 0.5 4 C0.335 4.66 0.17 5.32 0 6 C-0.99 6.33 -1.98 6.66 -3 7 C-3.66 6.67 -4.32 6.34 -5 6 C-5 5.34 -5 4.68 -5 4 C-4.01 4 -3.02 4 -2 4 C-1.34 2.68 -0.68 1.36 0 0 Z " fill="#222126" transform="translate(54,1)"/>
<path d="M0 0 C0 0.66 0 1.32 0 2 C-1.45792884 2.05399736 -2.91642712 2.09279177 -4.375 2.125 C-5.18710937 2.14820312 -5.99921875 2.17140625 -6.8359375 2.1953125 C-9 2 -9 2 -11 0 C-9.54263913 -0.19491452 -8.08405407 -0.38069358 -6.625 -0.5625 C-5.81289063 -0.66691406 -5.00078125 -0.77132812 -4.1640625 -0.87890625 C-2 -1 -2 -1 0 0 Z " fill="#28272D" transform="translate(60,106)"/>
<path d="M0 0 C0.99 0.66 1.98 1.32 3 2 C1.76055724 2.86941494 0.50792941 3.72005457 -0.75 4.5625 C-1.44609375 5.03816406 -2.1421875 5.51382813 -2.859375 6.00390625 C-5 7 -5 7 -9 6 C-6.03 4.02 -3.06 2.04 0 0 Z " fill="#56575C" transform="translate(130,86)"/>
<path d="M0 0 C0.66 0 1.32 0 2 0 C1.125 4.75 1.125 4.75 0 7 C-0.99 7 -1.98 7 -3 7 C-2.38722388 4.03824877 -1.74627478 2.61941217 0 0 Z " fill="#D8DADD" transform="translate(138,78)"/>
<path d="M0 0 C1.43931117 0.45261358 2.87638999 0.91232979 4.3125 1.375 C5.11300781 1.63023438 5.91351563 1.88546875 6.73828125 2.1484375 C9 3 9 3 12 5 C7.28596212 4.52060632 3.33420699 4.03165952 -1 2 C-0.67 1.34 -0.34 0.68 0 0 Z " fill="#B8B8BB" transform="translate(45,93)"/>
<path d="M0 0 C7.75 -0.125 7.75 -0.125 10 1 C10 2.32 10 3.64 10 5 C9.46375 4.71125 8.9275 4.4225 8.375 4.125 C5.64719516 2.83288192 2.87387282 1.91441408 0 1 C0 0.67 0 0.34 0 0 Z " fill="#49484C" transform="translate(48,94)"/>
<path d="M0 0 C1.95418308 2.93127462 2.64700993 4.55834679 3 8 C2.34 8.66 1.68 9.32 1 10 C-0.80411967 7.24075815 -1.0127245 6.11027897 -0.625 2.75 C-0.41875 1.8425 -0.2125 0.935 0 0 Z " fill="#4D4E52" transform="translate(127,67)"/>
<path d="M0 0 C0.66 0.99 1.32 1.98 2 3 C1.34 3 0.68 3 0 3 C0.33 3.99 0.66 4.98 1 6 C-0.65 6.66 -2.3 7.32 -4 8 C-2.25 2.25 -2.25 2.25 0 0 Z " fill="#D0D1D3" transform="translate(44,24)"/>
<path d="M0 0 C0.33 0.99 0.66 1.98 1 3 C-0.40445835 5.2636564 -2.1967913 7.0208685 -4 9 C-4.8125 7.3125 -4.8125 7.3125 -5 5 C-2.5625 2.25 -2.5625 2.25 0 0 Z " fill="#9FA0A4" transform="translate(38,22)"/>
<path d="M0 0 C0.33 0.99 0.66 1.98 1 3 C1.99 3.33 2.98 3.66 4 4 C4.33 4.99 4.66 5.98 5 7 C2.0625 6.1875 2.0625 6.1875 -1 5 C-1.33 4.01 -1.66 3.02 -2 2 C-1.34 2 -0.68 2 0 2 C0 1.34 0 0.68 0 0 Z " fill="#505052" transform="translate(34,116)"/>
<path d="M0 0 C0.33 0 0.66 0 1 0 C1 4.29 1 8.58 1 13 C-2 9 -2 9 -2 7 C-1.34 7 -0.68 7 0 7 C0 4.69 0 2.38 0 0 Z " fill="#868689" transform="translate(13,73)"/>
<path d="M0 0 C2.0625 0.4375 2.0625 0.4375 4 1 C3.67 1.99 3.34 2.98 3 4 C0.9375 4.6875 0.9375 4.6875 -1 5 C-1 1 -1 1 0 0 Z " fill="#E7E8EA" transform="translate(81,17)"/>
<path d="M0 0 C3.36179774 1.44077046 5.59156268 3.24750021 8 6 C8 6.66 8 7.32 8 8 C4.65001479 6.88333826 4.20659778 6.25305075 2.3125 3.4375 C1.87550781 2.79683594 1.43851563 2.15617187 0.98828125 1.49609375 C0.49908203 0.75552734 0.49908203 0.75552734 0 0 Z " fill="#313034" transform="translate(23,112)"/>
<path d="M0 0 C-1.28650706 0.69710731 -2.57940665 1.38242876 -3.875 2.0625 C-4.95394531 2.63677734 -4.95394531 2.63677734 -6.0546875 3.22265625 C-6.69664063 3.47917969 -7.33859375 3.73570313 -8 4 C-8.66 3.67 -9.32 3.34 -10 3 C-6.81859267 -0.48439851 -4.56758339 -1.41752588 0 0 Z " fill="#656569" transform="translate(112,107)"/>
<path d="M0 0 C0.99 0.66 1.98 1.32 3 2 C-0.465 3.485 -0.465 3.485 -4 5 C-4.33 4.34 -4.66 3.68 -5 3 C-5.66 2.67 -6.32 2.34 -7 2 C-6.401875 1.855625 -5.80375 1.71125 -5.1875 1.5625 C-3.43849596 1.1127561 -1.71322977 0.57107659 0 0 Z " fill="#5F5F62" transform="translate(96,98)"/>
<path d="M0 0 C1.875 1.3125 1.875 1.3125 3.875 4.3125 C0.46478257 3.52552675 -2.81385166 2.44130057 -6.125 1.3125 C-2.71630435 -0.87880435 -2.71630435 -0.87880435 0 0 Z " fill="#938F8C" transform="translate(61.125,62.6875)"/>
<path d="M0 0 C0.33 1.32 0.66 2.64 1 4 C-1.64 4 -4.28 4 -7 4 C-6.01 3.67 -5.02 3.34 -4 3 C-4 2.34 -4 1.68 -4 1 C-2 0 -2 0 0 0 Z " fill="#57565B" transform="translate(66,126)"/>
<path d="M0 0 C1.9375 0.75 1.9375 0.75 4 2 C4.75 4.125 4.75 4.125 5 6 C4.34 6 3.68 6 3 6 C3 5.34 3 4.68 3 4 C2.01 3.67 1.02 3.34 0 3 C0 2.01 0 1.02 0 0 Z " fill="#2A2A2D" transform="translate(20,113)"/>
<path d="M0 0 C0.33 0 0.66 0 1 0 C0.25 6.625 0.25 6.625 -2 10 C-2 9.34 -2 8.68 -2 8 C-2.66 7.67 -3.32 7.34 -4 7 C-3.525625 6.401875 -3.05125 5.80375 -2.5625 5.1875 C-0.83534256 2.99617076 -0.83534256 2.99617076 0 0 Z " fill="#161518" transform="translate(90,93)"/>
<path d="M0 0 C0.33 0.66 0.66 1.32 1 2 C0.06553465 4.03144641 -0.93224776 6.03533587 -2 8 C-2.66 8 -3.32 8 -4 8 C-2.25 2.25 -2.25 2.25 0 0 Z " fill="#363539" transform="translate(95,89)"/>
<path d="M0 0 C-0.60183749 2.02045442 -1.27306096 4.02111039 -2 6 C-2.99 6.495 -2.99 6.495 -4 7 C-4 5.02 -4 3.04 -4 1 C-2 0 -2 0 0 0 Z " fill="#D0D1D3" transform="translate(17,38)"/>
</svg>
